<?xml version="1.0" encoding="UTF-8"?>
<svg id="Layer_1" xmlns="http://www.w3.org/2000/svg" version="1.1" viewBox="0 0 50 25">
  <!-- Generator: Adobe Illustrator 29.1.0, SVG Export Plug-In . SVG Version: 2.1.0 Build 142)  -->
  <defs>
    <style>
      .st0 {
        fill: #fff;
      }
    </style>
  </defs>
  <path class="st0" d="M6.43,17.42c-1.09-.31-2.02-.56-2.94-.83-.95-.29-1.52-1-2.01-1.85C-.69,10.87.49,6.31,3.63,3.57c.77-.67,3.12-1.14,3.73-.65.93.77,1.87,1.59,2.6,2.55,1.12,1.41,1.4,3.1,1.16,4.86-.3,2.02-.64,4.1-2.3,5.57-.5.44-.36.98-.21,1.49.32,1.17.68,2.34,1.06,3.48.12.4.29.74-.22,1.04-2.06-.84-2.34-2.92-3.02-4.5ZM9.28,8.28c-.16-1.01-.68-2.01-1.15-2.95-.16-.3-.86-.66-1.06-.55-1.31.75-2.94,1.05-3.74,2.61-.93,1.83-1.26,3.69-.94,5.67.29,1.89,1.18,2.36,3.26,1.72-.18-.85-.35-1.69-.57-2.51-.13-.47-.21-.96.28-1.16.28-.11.79.02,1.04.22.58.49,1.07,1.1,1.66,1.73.85-1.51,1.49-3.06,1.21-4.76Z"/>
  <path class="st0" d="M14.16,13.19c.07,1.59-.14,3.19-.69,4.83-1.05-.36-1.81-.93-1.88-1.9-.12-1.59-.02-3.21-.02-4.93,2,.31,2.55.69,2.59,2ZM13.61,6.18c.28-.53.94-1.4,1.17-1.32.45.09.87.67.97,1.27.07.48-.23,1.41-.58,1.84-.77.95-1.64,1.29-2.58.82.34-.89.59-1.8,1.02-2.61Z"/>
  <path class="st0" d="M16.68,17.69c-1.21-.43-1.88-1.14-1.86-2.36.02-1.67,0-3.33.05-5,.02-.31.19-.83.33-.86.33-.05.81.07,1.02.31.43.45.71,1.02,1.1,1.64.31-.1.62-.19.95-.26,1.26-.26,2.55.31,3,1.48.29.76.43,1.62.5,2.43.1.81.02,1.64.02,2.48-.83.24-1.69-.19-1.95-1.07-.17-.55-.19-1.14-.26-1.74-.1-.64-.17-1.31-.24-1.98-1.79,1.29-2.31,3.05-2.67,4.93Z"/>
  <path class="st0" d="M24.88,10.58c-.85,1.98-1.1,4.1-1.35,6.24-.02.31.23.71.44.97.38.47.27.86.03,1.4-1.22-.34-1.68-1.25-1.74-2.26-.1-1.41-.01-2.83.1-4.24.06-.82.33-1.61.51-2.45-1.12-.44-2.14-.81-2.11-2.27.81.08,1.57.18,2.5.28.22-.68.47-1.36.71-2.01.26-.75.5-1.5.76-2.25.14-.43.29-.86.88-.78.57.08,1.22.78,1.12,1.32-.2.91-.47,1.8-.74,2.69-.13.48-.33.93-.46,1.31.14.79,1.54.66,1.05,1.89-.55.05-1.09.1-1.72.16Z"/>
  <path class="st0" d="M25.4,12.13c.43-1.31,1.64-1.79,2.93-1.26.14.05.26.17.4.19,1.86.21,2.64,1.4,3,3.12.41,1.86-.24,3.4-1.45,4.69-1.14,1.19-3.55.64-4.43-.9-.64-1.1-.9-2.29-.9-3.55.14-.76.22-1.57.45-2.29ZM26.78,16.46c.17.45.36.86.52,1.28.43-.19.93-.31,1.26-.6,1.14-1.05,1.24-2.4.88-3.81-.1-.38-.43-.98-.64-.98-.4,0-.9.29-1.19.62-.74.86-.79,1.98-.83,3.05,0,.14-.05.31,0,.43Z"/>
  <path class="st0" d="M41.16,15.71c-.48,1.09-.81,1.88-1.19,2.76-2.14-.29-2-2.33-2.71-3.95-.95,1.74-1.81,3.26-2.67,4.78-1.29-.29-2.05-1.02-2.12-2.38-.1-1.81-.02-3.62,0-5.45,0-.67.02-1.36.14-2.05.12-.69.55-.83,1.17-.5.76.4.95,1.05.88,1.86-.14,1.36-.24,2.71-.33,4.09.1.05.19.07.29.12.41-.59.81-1.19,1.21-1.81.98-1.48,1.59-1.55,2.81-.24.38.43.64.95.98,1.43.14-.1.29-.17.38-.26.98-1.14,1.81-1.14,2.71-.02.64.79,1.14,2.79.95,4.02-1.29-.1-1.9-1-2.5-2.4Z"/>
  <path class="st0" d="M48.98,8.08c-.76,1.24-1.57,2.47-2.44,3.84.19.1.49.25.79.44,1.2.68,1.87,2.12,1.58,3.34-.34,1.42-1.89,2.35-3.3,1.96-.31-.08-.71-.25-.86-.52-.48-.93-.97-1.89-1.27-2.92-.24-.83.23-1.6.69-2.33,1.37-2.12,2.74-4.27,4.12-6.41.19-.25.47-.43.8-.73.93,1.29.5,2.32-.1,3.32ZM44.87,14.43c1.01.81,1.6.76,2.86-.24-1.04-.41-1.94-.44-2.86.24Z"/>
</svg>